<?xml version="1.0" standalone="no"?>
<!DOCTYPE svg PUBLIC "-//W3C//DTD SVG 20010904//EN"
 "http://www.w3.org/TR/2001/REC-SVG-20010904/DTD/svg10.dtd">
<svg version="1.0" xmlns="http://www.w3.org/2000/svg"
 width="1024.000000pt" height="1024.000000pt" viewBox="0 0 1024.000000 1024.000000"
 preserveAspectRatio="xMidYMid meet">
<metadata>
Created by potrace 1.11, written by Peter Selinger 2001-2013
</metadata>
<g transform="translate(0.000000,1024.000000) scale(0.100000,-0.100000)"
fill="#000000" stroke="none">
<path d="M1718 10234 c-4 -3 -27 -6 -52 -6 -25 0 -46 -3 -46 -7 0 -4 -16 -7
-35 -6 -19 2 -35 0 -35 -4 0 -4 -8 -7 -17 -8 -37 -2 -179 -38 -221 -55 -15 -6
-31 -12 -37 -14 -44 -11 -151 -56 -153 -64 -2 -6 -8 -7 -14 -4 -6 4 -13 2 -17
-3 -3 -6 -26 -21 -51 -33 -76 -38 -195 -113 -203 -127 -4 -7 -14 -13 -22 -13
-8 0 -21 -10 -30 -22 -8 -13 -18 -22 -20 -20 -3 1 -20 -10 -38 -25 -54 -46
-277 -267 -273 -271 2 -2 -6 -14 -18 -26 -11 -13 -30 -34 -41 -47 -31 -36
-125 -177 -125 -187 0 -5 -7 -15 -15 -22 -9 -7 -13 -15 -11 -18 3 -3 -4 -17
-15 -33 -22 -32 -54 -100 -51 -111 1 -5 -2 -8 -8 -8 -6 0 -9 -3 -8 -7 1 -5 -6
-25 -15 -47 -9 -21 -17 -45 -17 -52 0 -8 -5 -14 -11 -14 -5 0 -7 -5 -4 -10 4
-6 1 -17 -5 -25 -7 -8 -9 -15 -5 -15 4 0 2 -7 -5 -15 -6 -8 -9 -19 -5 -25 3
-5 2 -10 -3 -10 -5 0 -9 -6 -10 -12 -3 -37 -28 -138 -34 -138 -4 0 -5 -12 -2
-26 3 -14 0 -32 -6 -39 -6 -7 -8 -27 -5 -44 3 -17 1 -31 -3 -31 -5 0 -8 -29
-8 -65 1 -36 -1 -65 -5 -65 -4 0 -7 -1494 -7 -3320 0 -1826 3 -3320 7 -3320 3
0 7 -28 8 -62 0 -35 4 -81 7 -103 3 -22 8 -55 11 -73 3 -19 12 -59 20 -90 9
-31 18 -69 20 -84 2 -15 9 -36 14 -46 6 -11 7 -22 4 -26 -3 -3 -1 -6 6 -6 7 0
11 -7 8 -15 -4 -8 -2 -17 2 -19 5 -3 14 -26 21 -51 7 -25 17 -48 21 -51 5 -3
9 -14 9 -25 0 -10 5 -19 10 -19 6 0 10 -8 11 -17 0 -10 11 -36 24 -58 13 -22
31 -56 41 -75 10 -19 20 -37 23 -40 4 -3 11 -12 16 -21 31 -49 70 -105 82
-117 7 -7 13 -17 13 -20 0 -4 12 -21 27 -37 16 -16 28 -32 28 -35 0 -10 275
-280 285 -280 6 0 10 -4 10 -9 0 -5 8 -12 18 -15 9 -3 28 -16 42 -29 29 -27
113 -85 120 -84 3 1 25 -12 50 -29 51 -34 190 -104 208 -104 7 0 12 -5 12 -10
0 -6 3 -9 8 -8 4 0 16 -2 27 -6 11 -4 31 -12 45 -16 14 -4 34 -11 45 -16 31
-11 48 -16 68 -17 9 -1 17 -5 17 -9 0 -4 8 -7 18 -7 9 0 44 -7 77 -16 65 -17
134 -27 178 -26 15 1 27 -2 27 -7 0 -4 43 -7 95 -7 52 1 95 -1 95 -5 0 -7
6425 -3 6555 5 55 3 117 7 137 8 21 1 38 6 38 10 0 4 15 7 33 7 17 -1 50 4 72
10 22 6 56 13 75 16 19 2 37 8 40 12 3 4 12 7 20 7 8 -1 20 3 27 8 7 5 17 6
22 3 5 -4 12 -2 15 3 3 5 17 12 30 15 14 3 38 11 53 18 15 6 30 12 33 13 3 0
20 9 37 18 18 10 34 17 35 16 6 -2 63 26 69 34 3 5 8 7 10 6 6 -4 103 53 111
66 5 6 8 6 8 0 0 -7 3 -7 8 0 6 9 88 66 141 100 9 6 22 18 29 27 7 10 17 18
21 18 16 0 231 203 231 218 0 5 15 22 33 38 17 16 37 37 42 45 13 21 101 140
115 156 5 7 10 17 10 23 0 5 5 10 10 10 6 0 10 7 10 15 0 8 5 15 12 15 6 0 9
3 5 6 -3 3 10 30 29 60 19 30 32 54 29 54 -3 0 6 20 20 45 15 24 24 49 21 54
-3 5 1 14 9 21 8 7 15 16 15 21 0 4 5 20 12 36 13 32 19 52 20 71 1 6 4 12 8
12 4 0 7 6 8 13 0 6 10 50 22 97 24 93 30 128 33 178 1 17 4 32 8 32 4 0 8 21
10 48 3 73 2 6780 -1 6840 -2 28 -7 52 -11 52 -4 0 -6 13 -4 30 2 16 0 32 -4
35 -4 2 -8 18 -9 34 -1 27 -35 174 -49 211 -4 8 -7 18 -8 23 -2 4 -4 9 -5 12
-1 3 -3 8 -5 13 -1 4 -7 20 -13 35 -7 15 -15 39 -18 53 -3 13 -10 27 -15 30
-5 3 -7 10 -4 15 4 5 1 9 -6 9 -7 0 -10 2 -7 5 7 7 -46 111 -95 188 -20 31
-37 62 -37 67 0 6 -4 10 -10 10 -5 0 -10 7 -10 15 0 8 -5 15 -10 15 -6 0 -15
11 -20 25 -5 14 -14 25 -20 25 -5 0 -10 4 -10 10 0 5 -8 19 -17 31 -28 33
-115 131 -149 166 -17 18 -29 35 -26 38 3 3 0 5 -7 5 -7 0 -37 24 -68 53 -30
28 -62 56 -71 61 -9 5 -25 19 -34 30 -10 12 -17 17 -18 13 0 -4 -11 2 -24 15
-57 55 -363 224 -441 243 -5 2 -17 4 -25 6 -8 2 -18 7 -21 12 -3 4 -20 9 -37
10 -18 1 -32 5 -32 10 0 4 -9 7 -20 7 -11 0 -20 4 -20 10 0 5 -7 7 -15 4 -8
-4 -21 -1 -29 5 -7 6 -16 8 -19 5 -3 -4 -14 -3 -24 1 -10 5 -25 9 -33 9 -8 1
-19 4 -25 7 -5 3 -23 5 -40 5 -16 -1 -33 3 -37 9 -8 11 -6889 20 -6900 9z"/>
<path d="M1080 136 c0 -2 8 -10 18 -17 15 -13 16 -12 3 4 -13 16 -21 21 -21
13z"/>
</g>
</svg>
